<svg width="33" height="33" viewBox="0 0 33 33" fill="none" xmlns="http://www.w3.org/2000/svg">
<path d="M14.4375 30.9375H16.5V33H0V30.9375H2.0625V17.5312C2.0625 16.7148 2.21289 15.9468 2.51367 15.2271C2.81445 14.5073 3.22266 13.8682 3.73828 13.3096C4.25391 12.751 4.86621 12.2998 5.5752 11.9561C6.28418 11.6123 7.04688 11.4136 7.86328 11.3599L17.6602 1.25684C18.0361 0.870117 18.4766 0.563965 18.9814 0.338379C19.4863 0.112793 20.0127 0 20.5605 0C20.9473 0 21.334 0.0537109 21.7207 0.161133C22.1074 0.268555 22.4727 0.424316 22.8164 0.628418C23.1602 0.83252 23.4663 1.07959 23.7349 1.36963C24.0034 1.65967 24.2236 1.9873 24.3955 2.35254L30.583 16.1777C30.7656 16.5752 30.8569 17.021 30.8569 17.5151C30.8569 17.9448 30.7817 18.3477 30.6313 18.7236C30.481 19.0996 30.2661 19.4272 29.9868 19.7065C29.7075 19.9858 29.3799 20.2114 29.0039 20.3833C28.6279 20.5552 28.2251 20.6357 27.7954 20.625C27.1831 20.625 26.6245 20.4585 26.1196 20.1255C25.6147 19.7925 25.2334 19.3467 24.9756 18.7881L20.9312 9.73242L14.3569 16.5161C14.3784 16.688 14.3945 16.8545 14.4053 17.0156C14.416 17.1768 14.4268 17.3486 14.4375 17.5312V30.9375ZM22.4619 8.15332L25.6523 15.2432L27.5376 14.4375L23.9927 6.49365C23.7886 6.80518 23.5469 7.09521 23.2676 7.36377C22.9883 7.63232 22.7197 7.89551 22.4619 8.15332ZM28.8105 17.5151C28.8105 17.3003 28.7622 17.0962 28.6655 16.9028C28.5688 16.7095 28.4775 16.5161 28.3916 16.3228L26.4902 17.1284C26.5654 17.2896 26.6353 17.4507 26.6997 17.6118C26.7642 17.7729 26.8447 17.9287 26.9414 18.0791C27.0381 18.2295 27.1509 18.3423 27.2798 18.4175C27.4087 18.4927 27.5859 18.541 27.8115 18.5625C28.1016 18.5625 28.3379 18.4604 28.5205 18.2563C28.7031 18.0522 28.7998 17.8052 28.8105 17.5151ZM10.377 11.7144C11.043 11.9614 11.6499 12.3105 12.1978 12.7617C12.7456 13.2129 13.2021 13.7446 13.5674 14.3569L22.1074 5.55908C22.3008 5.35498 22.4458 5.12939 22.5425 4.88232C22.6392 4.63525 22.6875 4.37207 22.6875 4.09277C22.6875 3.81348 22.6338 3.55029 22.5264 3.30322C22.4189 3.05615 22.2739 2.84131 22.0913 2.65869C21.9087 2.47607 21.6938 2.33105 21.4468 2.22363C21.1997 2.11621 20.9365 2.0625 20.6572 2.0625C20.0557 2.0625 19.5508 2.27197 19.1426 2.69092L10.377 11.7144ZM4.125 30.9375H12.375V17.5312C12.375 16.9619 12.2676 16.4302 12.0527 15.936C11.8379 15.4419 11.5425 15.0015 11.1665 14.6147C10.7905 14.228 10.3555 13.9326 9.86133 13.7285C9.36719 13.5244 8.83008 13.417 8.25 13.4062C7.68066 13.4062 7.14893 13.5137 6.65479 13.7285C6.16064 13.9434 5.72021 14.2388 5.3335 14.6147C4.94678 14.9907 4.65137 15.4258 4.44727 15.9199C4.24316 16.4141 4.13574 16.9512 4.125 17.5312V30.9375ZM8.25 16.5C8.54004 16.5 8.80859 16.5537 9.05566 16.6611C9.30273 16.7686 9.51758 16.9136 9.7002 17.0962C9.88281 17.2788 10.0332 17.499 10.1514 17.7568C10.2695 18.0146 10.3232 18.2832 10.3125 18.5625C10.3125 18.8525 10.2588 19.1211 10.1514 19.3682C10.0439 19.6152 9.89893 19.8301 9.71631 20.0127C9.53369 20.1953 9.31348 20.3457 9.05566 20.4639C8.79785 20.582 8.5293 20.6357 8.25 20.625C7.95996 20.625 7.69141 20.5713 7.44434 20.4639C7.19727 20.3564 6.98242 20.2114 6.7998 20.0288C6.61719 19.8462 6.4668 19.626 6.34863 19.3682C6.23047 19.1104 6.17676 18.8418 6.1875 18.5625C6.1875 18.2725 6.24121 18.0039 6.34863 17.7568C6.45605 17.5098 6.60107 17.2949 6.78369 17.1123C6.96631 16.9297 7.18652 16.7793 7.44434 16.6611C7.70215 16.543 7.9707 16.4893 8.25 16.5ZM22.6875 28.875V26.8125H33V28.875H22.6875ZM22.6875 22.6875H33V24.75H22.6875V22.6875ZM18.5625 24.75V22.6875H20.625V24.75H18.5625ZM22.6875 33V30.9375H33V33H22.6875ZM18.5625 33V30.9375H20.625V33H18.5625ZM18.5625 28.875V26.8125H20.625V28.875H18.5625Z" fill="#FEFEF3"/>
</svg>
