<svg width="31" height="30" viewBox="0 0 31 30" fill="none" xmlns="http://www.w3.org/2000/svg">
<path d="M8.55172 20.3572H2.13793C0.958862 20.3572 0 19.3961 0 18.2143V11.7857C0 10.6039 0.958862 9.64288 2.13793 9.64288H8.55172C9.73079 9.64288 10.6897 10.6039 10.6897 11.7857V18.2143C10.6897 19.3961 9.73079 20.3572 8.55172 20.3572ZM2.13793 11.7857V18.2143H8.55172V11.7857H2.13793ZM16.0345 30C15.6475 30 15.2648 29.985 14.8843 29.9571C10.2321 29.6014 5.94772 27.03 3.42176 23.0786L5.22297 21.9214C6.2962 23.5969 7.74129 25.001 9.44541 26.0242C11.1495 27.0473 13.0665 27.6618 15.0468 27.8196C15.3728 27.8443 15.702 27.8571 16.0345 27.8571V30ZM23.5172 30L21.2724 28.9286C19.4552 28.0714 18.1724 26.1429 18.1724 24.1071V17.1429H28.8621V24.1071C28.8621 26.1429 27.6862 28.0714 25.7621 28.9286L23.5172 30ZM20.3103 19.2857V24.1071C20.3103 25.3929 21.0586 26.4643 22.1276 27L23.5172 27.6429L24.9069 27C25.9759 26.4643 26.7241 25.2857 26.7241 24.1071V19.2857H20.3103ZM28.1159 10.7143C28.6012 12.0879 28.8621 13.5225 28.8621 15H31C31 13.5322 30.7873 12.0986 30.3757 10.7143H28.1159ZM27.7931 8.57145H24.5862C23.4071 8.57145 22.4483 7.61038 22.4483 6.4286V3.21431C22.4483 2.03253 23.4071 1.07146 24.5862 1.07146H27.7931C28.9722 1.07146 29.931 2.03253 29.931 3.21431V6.4286C29.931 7.61038 28.9722 8.57145 27.7931 8.57145ZM24.5862 3.21431V6.4286H27.7931V3.21431H24.5862ZM20.3103 0.625745C18.9229 0.210228 17.4825 -0.000555025 16.0345 3.16989e-05C13.5207 -0.00515666 11.0464 0.626644 8.84146 1.83672C6.63656 3.0468 4.77261 4.79589 3.42283 6.92145L5.22297 8.07859C6.77897 5.62808 9.11938 3.78008 11.8606 2.8375C14.6018 1.89492 17.5812 1.9137 20.3103 2.89074V0.625745Z" fill="#FEFEF3"/>
</svg>
