<svg width="36" height="37" viewBox="0 0 36 37" fill="none" xmlns="http://www.w3.org/2000/svg">
<path d="M11.75 7.12659C11.7498 7.82297 11.4828 8.49074 11.0078 8.98299C10.5328 9.47524 9.88862 9.75165 9.21706 9.75142C8.54551 9.75119 7.90155 9.47433 7.42685 8.98175C6.95215 8.48917 6.68559 7.82122 6.68581 7.12484C6.68604 6.42845 6.95302 5.76069 7.42804 5.26843C7.66325 5.0247 7.94245 4.83138 8.2497 4.69954C8.55695 4.56769 8.88623 4.49989 9.21875 4.5C9.55127 4.50012 9.88051 4.56814 10.1877 4.70021C10.4948 4.83227 10.7739 5.02577 11.009 5.26967C11.244 5.51357 11.4304 5.80309 11.5576 6.1217C11.6847 6.44031 11.7501 6.78177 11.75 7.12659ZM26.9375 7.12659C26.9373 7.82297 26.6703 8.49074 26.1953 8.98299C25.7203 9.47524 25.0761 9.75165 24.4046 9.75142C23.733 9.75119 23.0891 9.47433 22.6143 8.98175C22.1396 8.48917 21.8731 7.82122 21.8733 7.12484C21.8735 6.42845 22.1405 5.76069 22.6155 5.26843C22.8507 5.0247 23.1299 4.83138 23.4372 4.69954C23.7444 4.56769 24.0737 4.49989 24.4062 4.5C24.7388 4.50012 25.068 4.56814 25.3752 4.70021C25.6823 4.83227 25.9614 5.02577 26.1965 5.26967C26.4315 5.51357 26.6179 5.80309 26.7451 6.1217C26.8722 6.44031 26.9376 6.78177 26.9375 7.12659ZM11.75 11.5013H6.6875C6.23995 11.5013 5.81072 11.6857 5.49426 12.0138C5.17779 12.342 5 12.7871 5 13.2512V22.0007H6.6875V32.5H8.79688V22.0007H9.64062V32.5H11.75V22.0007H13.4375V13.2512C13.4375 12.7871 13.2597 12.342 12.9432 12.0138C12.6268 11.6857 12.1976 11.5013 11.75 11.5013ZM30.7074 18.5009L32 17.5297L28.4849 11.8933C28.4082 11.7724 28.3037 11.6732 28.1809 11.6045C28.0581 11.5358 27.9208 11.4997 27.7812 11.4996H21.0312C20.8916 11.4993 20.7541 11.5351 20.6312 11.6039C20.5084 11.6726 20.404 11.7721 20.3276 11.8933L16.8125 17.5297L18.1051 18.5009L21.0228 14.5741L22.037 17.0275L18.5017 23.7488H21.7366L22.2986 32.4983H23.9861V23.7488H24.8298V32.4983H26.5173L27.0793 23.7488H30.3142L26.7789 17.0257L27.7931 14.5724L30.7108 18.4991L30.7074 18.5009Z" fill="#FEFEF3"/>
</svg>
