<svg xmlns="http://www.w3.org/2000/svg" width="652" height="727" viewBox="0 0 652 727" version="1.1"><path d="M 229 462.603 C 227.075 463.460, 224.150 464.787, 222.500 465.552 C 218.216 467.540, 204.062 472, 202.039 472 C 201.101 472, 199.998 472.337, 199.588 472.750 C 199.179 473.163, 195.841 474.025, 192.172 474.667 C 188.502 475.309, 180.550 476.783, 174.500 477.944 C 156.484 481.400, 147.115 482.991, 135.500 484.566 C 129.450 485.386, 122.985 486.472, 121.133 486.980 L 117.766 487.903 114.840 487.318 L 111.913 486.733 110.544 484.085 C 109.791 482.629, 106.949 479.355, 104.229 476.811 L 99.284 472.186 95.235 470.120 C 93.008 468.984, 89.232 467.351, 86.843 466.491 L 82.500 464.928 75.285 464.322 L 68.071 463.717 62.063 465.402 C 58.759 466.329, 53.906 468.039, 51.278 469.201 L 46.500 471.315 40.411 477.407 L 34.323 483.500 31.161 489.985 L 28 496.470 28 498.676 L 28 500.882 27 501.500 L 26 502.118 26 509.954 L 26 517.789 27.964 524.145 L 29.928 530.500 32.834 535 C 36.400 540.520, 41.048 545.249, 46.801 549.207 L 51.164 552.209 56.832 554.304 L 62.500 556.400 72.500 556.417 L 82.500 556.435 89.300 553.629 L 96.100 550.823 100.105 552.426 C 104.425 554.154, 125.388 565.905, 172 592.728 C 210.666 614.979, 216.810 618.546, 247 636.269 L 272.500 651.240 275.681 654.249 L 278.861 657.258 279.482 653.379 C 280.589 646.459, 282.290 640.555, 283.912 637.996 C 284.786 636.618, 285.950 634.769, 286.500 633.886 C 287.050 633.003, 288.333 631.102, 289.351 629.662 L 291.202 627.043 288.212 623.267 L 285.222 619.492 270.361 610.917 C 197.753 569.018, 127.699 527.948, 128.164 527.551 C 128.349 527.394, 144.475 518.825, 164 508.509 C 183.525 498.193, 202.200 488.300, 205.500 486.525 C 208.800 484.749, 217.688 480.044, 225.250 476.068 L 239 468.839 239 467.870 C 239 467.337, 238.313 465.573, 237.474 463.950 L 235.949 461 234.224 461.023 C 233.276 461.035, 230.925 461.746, 229 462.603 M 581.250 465.728 C 583.313 465.944, 586.688 465.944, 588.750 465.728 L 592.500 465.336 585 465.336 L 577.500 465.336 581.250 465.728 M 359.092 626.500 C 359.814 627.600, 361.171 629.400, 362.106 630.500 C 363.042 631.600, 365.191 635.200, 366.883 638.500 L 369.958 644.500 369.979 643.122 C 370.010 641.101, 364.597 632.043, 360.942 628 L 357.779 624.500 359.092 626.500 M 370.086 646.500 C 370.055 647.600, 370.467 649.175, 371 650 L 371.969 651.500 371.914 650 C 371.884 649.175, 371.473 647.600, 371 646.500 L 370.141 644.500 370.086 646.500" stroke="none" fill="#652d90" fill-rule="evenodd"/><path d="M 568.272 170.924 L 562.044 172.705 558.097 175.317 C 551.681 179.563, 547.355 183.758, 543.684 189.294 L 540.231 194.500 538.115 201.355 L 536 208.211 536 214.950 L 536 221.690 538.071 227.595 C 539.211 230.843, 540.387 234.505, 540.685 235.734 L 541.227 237.967 532.613 249.378 C 527.876 255.654, 524 261.080, 524 261.436 C 524 261.792, 523.056 263.077, 521.901 264.292 C 520.747 265.506, 517.738 269.200, 515.215 272.500 C 508.257 281.600, 488.964 300.562, 482 305.145 C 480.625 306.050, 478.591 307.625, 477.481 308.645 C 473.536 312.269, 436.765 339.430, 406.894 360.786 C 385.270 376.246, 351.757 399.618, 327.500 416.155 C 320.350 421.029, 312.655 426.555, 310.400 428.434 L 306.299 431.849 304.529 435.580 L 302.758 439.312 303.303 443.906 C 303.603 446.433, 304.860 451.581, 306.097 455.348 L 308.346 462.195 309.596 462.675 L 310.847 463.155 326.174 454.957 C 339.669 447.739, 356.375 438.436, 361.114 435.500 C 362.002 434.950, 364.606 433.470, 366.900 432.211 C 380.830 424.569, 433.455 390.172, 436 387.046 C 436.275 386.708, 439.542 384.283, 443.261 381.658 C 456.040 372.633, 478.487 354.218, 496.476 338 C 513.754 322.423, 542.914 291.981, 558.037 273.734 C 562.033 268.913, 565.475 265.142, 565.687 265.354 C 565.899 265.566, 566.062 308.494, 566.050 360.749 L 566.027 455.759 568.764 459.274 C 570.269 461.207, 571.950 463.468, 572.500 464.298 L 573.500 465.806 579 465.029 L 584.500 464.253 591 465.184 C 594.575 465.697, 599.243 466.784, 601.373 467.599 L 605.245 469.082 604.486 467.291 L 603.727 465.500 602.937 440.500 L 602.148 415.500 602.074 339.928 L 602 264.356 603.572 259.742 L 605.145 255.127 608.475 252.587 C 610.306 251.190, 613.637 248.124, 615.876 245.774 L 619.947 241.500 622.441 236.925 L 624.934 232.350 626.467 226.465 L 628 220.580 628 214.216 L 628 207.853 625.473 200.324 L 622.945 192.795 620.281 189.147 C 618.816 187.141, 616.241 184.006, 614.559 182.180 L 611.500 178.860 605.922 175.462 L 600.344 172.064 594.462 170.532 L 588.580 169 581.540 169.071 L 574.500 169.142 568.272 170.924 M 251.654 296.752 C 251.112 297.628, 250.145 310.822, 249.473 326.500 C 249.213 332.550, 248.996 353.700, 248.990 373.500 L 248.979 409.500 249.982 425 C 251.925 455.040, 253.675 471.601, 257.498 496.130 C 259.856 511.255, 264.967 537.840, 266.893 545 C 267.411 546.925, 268.298 550.300, 268.864 552.500 C 273.070 568.852, 276.119 579.163, 282.098 597.254 C 285.870 608.668, 289.832 619.818, 290.901 622.032 L 292.846 626.057 289.428 629.778 C 287.548 631.825, 286.007 633.881, 286.005 634.346 C 286.002 634.811, 285.182 636.386, 284.181 637.846 C 283.181 639.306, 281.769 642.525, 281.043 645 L 279.724 649.500 279.836 658.077 L 279.948 666.653 281.868 672.825 L 283.789 678.996 287.009 684.014 L 290.228 689.031 294.510 692.800 C 296.865 694.873, 301.010 697.776, 303.721 699.251 L 308.650 701.934 314.535 703.467 L 320.420 705 326 705 L 331.580 705 337.485 703.462 L 343.389 701.924 348.445 699.019 L 353.500 696.114 358.164 691.307 L 362.828 686.500 365.708 681.500 C 369.336 675.200, 370.787 670.260, 371.479 661.852 L 372.025 655.208 370.621 649.189 L 369.217 643.169 366.358 637.900 L 363.500 632.631 358.857 627.566 L 354.214 622.500 348.857 619.292 L 343.500 616.085 337.540 614.542 C 334.262 613.694, 329.929 613, 327.911 613 L 324.243 613 323.185 610.250 C 322.603 608.737, 320.476 602.325, 318.459 596 C 316.441 589.675, 313.982 582.025, 312.994 579 C 312.006 575.975, 310.414 570.800, 309.458 567.500 C 308.501 564.200, 306.675 558.125, 305.400 554 C 301.827 542.441, 295.328 515.567, 293.550 505 C 292.671 499.775, 291.525 493.250, 291.003 490.500 C 290.054 485.498, 287.985 466.626, 286.015 445 C 284.313 426.321, 282.794 391.900, 282.022 354.500 L 281.300 319.500 280.244 315.699 C 279.663 313.608, 278.133 310.339, 276.844 308.435 L 274.500 304.973 270.904 302.574 L 267.308 300.176 260.549 298.088 C 253.060 295.775, 252.325 295.664, 251.654 296.752" stroke="none" fill="#ed1b24" fill-rule="evenodd"/><path d="M 457.679 395.394 L 457.144 396.787 459.733 399.144 L 462.323 401.500 461.507 400.095 L 460.691 398.691 461.916 399.448 C 462.589 399.864, 463.465 401.084, 463.863 402.159 C 464.626 404.221, 475.456 416.226, 488 428.914 C 492.125 433.086, 495.987 437.400, 496.582 438.500 L 497.664 440.500 498.906 440.225 L 500.149 439.950 499.613 440.817 L 499.078 441.683 504.289 446.623 C 507.155 449.339, 509.654 451.998, 509.841 452.531 C 510.029 453.064, 512.417 455.863, 515.148 458.750 L 520.113 464 521.223 464 L 522.333 464 521.675 464.658 L 521.017 465.316 522.122 466.647 L 523.227 467.978 524.268 467.334 L 525.309 466.691 524.638 467.777 L 523.967 468.863 525.825 470.182 C 526.846 470.907, 528.220 472.512, 528.876 473.750 L 530.070 476 531.535 476 L 533 476 533 477.059 L 533 478.118 531.750 477.387 L 530.500 476.656 532.500 479.078 C 533.600 480.410, 534.950 481.831, 535.500 482.235 L 536.500 482.969 535.762 482.985 C 535.357 482.993, 536.563 485.404, 538.443 488.343 L 541.860 493.686 540.894 497.593 C 539.758 502.188, 539.231 504.969, 538.401 510.750 L 537.790 515 538.864 515 L 539.937 515 539.320 516.750 C 538.980 517.712, 537.804 519.499, 536.706 520.719 L 534.709 522.938 533.988 522.493 L 533.267 522.047 531.500 524 L 529.733 525.953 528.971 525.482 L 528.210 525.011 527.636 526.506 L 527.063 528 525.103 528 L 523.143 528 521.643 529.500 C 520.818 530.325, 519.661 531, 519.071 531 L 518 531 518 532.059 L 518 533.118 517 532.500 L 516 531.882 516 532.876 L 516 533.871 512.500 535.136 C 510.575 535.832, 509 536.717, 509 537.103 C 509 537.489, 507.762 538.292, 506.250 538.888 C 503.064 540.143, 499.768 542.134, 498.888 543.335 C 498.552 543.795, 498.039 544.020, 497.749 543.835 C 497.459 543.651, 495.383 544.704, 493.136 546.174 C 490.889 547.645, 488.140 549.138, 487.026 549.492 C 485.912 549.845, 485 550.506, 485 550.959 L 485 551.783 482.500 552.411 L 480 553.038 480 554.019 L 480 555 478.571 555 C 477.786 555, 476.527 555.616, 475.775 556.368 C 475.022 557.121, 473.465 558.035, 472.315 558.400 C 471.164 558.765, 469.017 560.182, 467.542 561.548 L 464.862 564.033 463.931 563.457 L 463 562.882 463 563.874 L 463 564.865 460.750 565.560 C 457.847 566.456, 440.134 576.809, 437.426 579.193 L 435.352 581.018 434.676 580.342 L 434 579.667 434 580.833 L 434 582 432.956 582 C 432.382 582, 426.870 584.953, 420.706 588.562 C 405.716 597.341, 405.574 597.426, 405 598 C 404.113 598.887, 398.580 601.923, 395.750 603.076 L 393 604.196 393 605.098 C 393 605.594, 392.525 606, 391.944 606 C 391.364 606, 386.596 608.587, 381.350 611.750 C 376.104 614.913, 370.166 618.341, 368.156 619.368 C 366.145 620.395, 364.275 621.572, 364 621.983 C 363.725 622.394, 362.494 623.044, 361.265 623.428 L 359.030 624.125 362.899 629.313 C 368.844 637.285, 372.961 646.846, 372.989 652.750 L 373 655 374.122 655 L 375.245 655 373.890 656.750 L 372.534 658.500 374.744 656.616 L 376.953 654.733 376.402 653.842 L 375.851 652.950 376.676 653.198 C 377.403 653.416, 382.671 650.414, 384 649.023 C 384.275 648.735, 386.667 647.375, 389.316 646 C 391.965 644.625, 394.994 642.703, 396.047 641.729 C 397.100 640.755, 398.223 640.016, 398.543 640.086 C 398.863 640.156, 403.596 637.603, 409.062 634.414 L 419 628.616 419 627.749 L 419 626.882 420 627.500 L 421 628.118 421 627 L 421 625.882 422.007 626.504 L 423.014 627.127 423.612 625.569 L 424.210 624.011 425.105 624.565 L 426 625.118 426 624 L 426 622.882 426.895 623.435 L 427.790 623.989 428.388 622.431 L 428.986 620.873 429.993 621.496 L 431 622.118 431 621.059 C 431 620.477, 431.337 620.079, 431.750 620.175 C 432.952 620.454, 438 617.761, 438 616.839 C 438 616.378, 438.565 616, 439.255 616 C 440.887 616, 461.275 604.158, 462.235 602.652 L 462.969 601.500 463.016 602.500 L 463.064 603.500 464.282 601.901 C 465.489 600.316, 466.101 600, 467.961 600 C 468.490 600, 469.840 599.015, 470.961 597.811 C 472.082 596.608, 473 595.975, 473 596.406 L 473 597.190 477.750 594.432 C 480.363 592.914, 482.775 591.258, 483.112 590.751 C 483.448 590.244, 484.123 589.871, 484.612 589.923 C 485.100 589.974, 486.249 589.375, 487.165 588.590 L 488.831 587.164 489.415 587.749 L 490 588.333 490 587.108 L 490 585.882 491.007 586.504 L 492.014 587.127 492.550 585.730 L 493.086 584.333 494.293 584.325 C 495.471 584.316, 514.007 574.162, 515 572.981 C 515.275 572.654, 516.915 571.814, 518.645 571.115 C 520.375 570.416, 522.737 568.962, 523.895 567.883 C 525.053 566.805, 526 566.176, 526 566.487 C 526 566.797, 527.350 566.353, 529 565.500 L 532 563.949 532 562.915 L 532 561.882 532.919 562.450 L 533.839 563.018 535.216 561.641 C 535.974 560.884, 537.585 559.949, 538.797 559.565 L 541 558.865 541 557.874 L 541 556.882 542 557.500 L 543 558.118 543 556.892 L 543 555.667 543.577 556.243 L 544.153 556.820 548.587 554.859 L 553.021 552.897 558.510 552.497 L 564 552.098 564 553.108 L 564 554.118 565 553.500 L 566 552.882 566 554 L 566 555.118 567 554.500 L 568 553.882 568 554.822 L 568 555.763 572.443 556.881 L 576.886 558 585.776 558 L 594.667 558 595.371 557.296 C 595.759 556.908, 597.296 556.430, 598.788 556.234 L 601.500 555.877 601.835 554.932 L 602.171 553.988 603.085 554.553 L 604 555.118 604 554.059 C 604 553.477, 604.337 553.053, 604.750 553.118 C 606.594 553.410, 607.981 552.876, 609.607 551.250 C 610.570 550.288, 611.629 549.500, 611.962 549.500 C 612.992 549.500, 620 542.126, 620 541.042 C 620 540.478, 620.900 539.455, 622 538.768 L 624 537.519 624 536.259 L 624 535 625.059 535 L 626.118 535 625.500 534 L 624.882 533 626 533 L 627.118 533 626.500 532 L 625.882 531 627 531 L 628.118 531 627.553 530.085 L 626.988 529.171 628.037 528.821 L 629.086 528.471 629.474 525.486 C 629.688 523.844, 629.949 522.388, 630.056 522.250 C 631.399 520.519, 631.347 501.012, 630 501.002 C 629.725 501, 629.429 499.775, 629.342 498.280 L 629.184 495.561 628.086 495.195 L 626.988 494.829 627.553 493.915 L 628.118 493 627 493 L 625.882 493 626.500 492 L 627.118 491 625.892 491 L 624.667 491 625.293 490.373 L 625.920 489.746 624.467 486.937 C 623.668 485.391, 622.491 483.804, 621.853 483.409 L 620.691 482.691 621.405 483.845 L 622.118 485 621.507 485 C 621.171 485, 620.426 483.651, 619.851 482.001 L 618.805 479.002 617.979 479.513 L 617.153 480.024 615 477 L 612.847 473.976 612.102 474.437 L 611.357 474.898 609.688 472.949 L 608.020 471 606.163 471 C 605.143 471, 603.001 470.350, 601.404 469.556 L 598.500 468.111 591.541 467.003 L 584.582 465.895 581.041 466.453 C 579.093 466.761, 575.475 467.227, 573 467.489 L 568.500 467.966 566.909 464.733 C 566.034 462.955, 564.909 461.488, 564.409 461.474 C 562.956 461.432, 559.833 459.405, 559.690 458.410 C 559.527 457.276, 554 452.552, 554 453.546 C 554 453.944, 553.049 453.060, 551.886 451.582 C 550.723 450.104, 549.595 449.071, 549.379 449.287 C 549.163 449.503, 547.115 447.952, 544.827 445.840 C 542.539 443.728, 540.175 442, 539.574 442 C 538.973 442, 537.919 441.100, 537.232 440 L 535.983 438 534.732 438 L 533.481 438 532.232 436 L 530.983 434 529.492 434 L 528 434 528 433 L 528 432 526.500 432 L 525 432 525 431.048 C 525 430.075, 515.778 423.327, 515.159 423.847 C 514.971 424.004, 514.296 423.423, 513.659 422.555 L 512.500 420.977 510.073 420.512 C 508.739 420.256, 507.164 419.520, 506.573 418.877 L 505.500 417.707 507 418.427 L 508.500 419.148 506.559 417.574 C 505.491 416.708, 504.029 416, 503.309 416 L 502 416 502 414.941 L 502 413.882 501.105 414.435 L 500.210 414.989 499.612 413.431 L 499.014 411.873 498.007 412.496 L 497 413.118 497 412.126 L 497 411.135 494.750 410.433 C 493.512 410.046, 492.271 409.377, 491.991 408.945 C 491.710 408.514, 490.821 408.012, 490.014 407.830 C 489.208 407.649, 487.938 406.933, 487.193 406.241 L 485.839 404.982 484.919 405.550 L 484 406.118 484 405 L 484 403.882 483 404.500 L 482 405.118 482 404 L 482 402.882 481 403.500 L 480 404.118 480 403.166 C 480 402.642, 479.302 401.946, 478.448 401.618 L 476.896 401.023 477.500 402 L 478.104 402.977 476.558 402.384 L 475.011 401.790 475.565 400.895 L 476.118 400 474.559 400 C 473.702 400, 472.713 400.038, 472.362 400.085 C 472.011 400.132, 471.448 399.749, 471.112 399.234 C 470.618 398.478, 459.887 394, 458.569 394 C 458.374 394, 457.973 394.627, 457.679 395.394" stroke="none" fill="#1d75bd" fill-rule="evenodd"/><path d="M 568.272 170.924 L 562.044 172.705 558.097 175.317 C 551.681 179.563, 547.355 183.758, 543.684 189.294 L 540.231 194.500 538.115 201.355 L 536 208.211 536 214.950 L 536 221.690 538.071 227.595 C 539.211 230.843, 540.387 234.505, 540.685 235.734 L 541.227 237.967 532.613 249.378 C 527.876 255.654, 524 261.080, 524 261.436 C 524 261.792, 523.056 263.077, 521.901 264.292 C 520.747 265.506, 517.738 269.200, 515.215 272.500 C 508.257 281.600, 488.964 300.562, 482 305.145 C 480.625 306.050, 478.591 307.625, 477.481 308.645 C 473.536 312.269, 436.765 339.430, 406.894 360.786 C 385.270 376.246, 351.757 399.618, 327.500 416.155 C 320.350 421.029, 312.655 426.555, 310.400 428.434 L 306.299 431.849 304.529 435.580 L 302.758 439.312 303.303 443.906 C 303.603 446.433, 304.860 451.581, 306.097 455.348 L 308.346 462.195 309.596 462.675 L 310.847 463.155 326.174 454.957 C 339.669 447.739, 356.375 438.436, 361.114 435.500 C 362.002 434.950, 364.606 433.470, 366.900 432.211 C 380.830 424.569, 433.455 390.172, 436 387.046 C 436.275 386.708, 439.542 384.283, 443.261 381.658 C 456.040 372.633, 478.487 354.218, 496.476 338 C 513.754 322.423, 542.914 291.981, 558.037 273.734 C 562.033 268.913, 565.475 265.142, 565.687 265.354 C 565.899 265.566, 566.062 308.494, 566.050 360.749 L 566.027 455.759 568.764 459.274 C 570.269 461.207, 571.950 463.468, 572.500 464.298 L 573.500 465.806 579 465.029 L 584.500 464.253 591 465.184 C 594.575 465.697, 599.243 466.784, 601.373 467.599 L 605.245 469.082 604.486 467.291 L 603.727 465.500 602.937 440.500 L 602.148 415.500 602.074 339.928 L 602 264.356 603.572 259.742 L 605.145 255.127 608.475 252.587 C 610.306 251.190, 613.637 248.124, 615.876 245.774 L 619.947 241.500 622.441 236.925 L 624.934 232.350 626.467 226.465 L 628 220.580 628 214.216 L 628 207.853 625.473 200.324 L 622.945 192.795 620.281 189.147 C 618.816 187.141, 616.241 184.006, 614.559 182.180 L 611.500 178.860 605.922 175.462 L 600.344 172.064 594.462 170.532 L 588.580 169 581.540 169.071 L 574.500 169.142 568.272 170.924 M 251.654 296.752 C 251.112 297.628, 250.145 310.822, 249.473 326.500 C 249.213 332.550, 248.996 353.700, 248.990 373.500 L 248.979 409.500 249.982 425 C 251.925 455.040, 253.675 471.601, 257.498 496.130 C 259.856 511.255, 264.967 537.840, 266.893 545 C 267.411 546.925, 268.298 550.300, 268.864 552.500 C 273.070 568.852, 276.119 579.163, 282.098 597.254 C 285.870 608.668, 289.832 619.818, 290.901 622.032 L 292.846 626.057 289.428 629.778 C 287.548 631.825, 286.007 633.881, 286.005 634.346 C 286.002 634.811, 285.182 636.386, 284.181 637.846 C 283.181 639.306, 281.769 642.525, 281.043 645 L 279.724 649.500 279.836 658.077 L 279.948 666.653 281.868 672.825 L 283.789 678.996 287.009 684.014 L 290.228 689.031 294.510 692.800 C 296.865 694.873, 301.010 697.776, 303.721 699.251 L 308.650 701.934 314.535 703.467 L 320.420 705 326 705 L 331.580 705 337.485 703.462 L 343.389 701.924 348.445 699.019 L 353.500 696.114 358.164 691.307 L 362.828 686.500 365.708 681.500 C 369.336 675.200, 370.787 670.260, 371.479 661.852 L 372.025 655.208 370.621 649.189 L 369.217 643.169 366.358 637.900 L 363.500 632.631 358.857 627.566 L 354.214 622.500 348.857 619.292 L 343.500 616.085 337.540 614.542 C 334.262 613.694, 329.929 613, 327.911 613 L 324.243 613 323.185 610.250 C 322.603 608.737, 320.476 602.325, 318.459 596 C 316.441 589.675, 313.982 582.025, 312.994 579 C 312.006 575.975, 310.414 570.800, 309.458 567.500 C 308.501 564.200, 306.675 558.125, 305.400 554 C 301.827 542.441, 295.328 515.567, 293.550 505 C 292.671 499.775, 291.525 493.250, 291.003 490.500 C 290.054 485.498, 287.985 466.626, 286.015 445 C 284.313 426.321, 282.794 391.900, 282.022 354.500 L 281.300 319.500 280.244 315.699 C 279.663 313.608, 278.133 310.339, 276.844 308.435 L 274.500 304.973 270.904 302.574 L 267.308 300.176 260.549 298.088 C 253.060 295.775, 252.325 295.664, 251.654 296.752" stroke="none" fill="#ed1b24" fill-rule="evenodd"/><path d="M 270.500 75.606 C 268.300 77.482, 264.025 80.455, 261 82.214 C 257.975 83.972, 254.150 86.231, 252.500 87.233 C 250.850 88.235, 248.713 89.320, 247.750 89.644 C 246.787 89.968, 246 90.576, 246 90.995 C 246 91.414, 244.650 92.317, 243 93 L 240 94.243 240 95.121 C 240 95.605, 239.522 96, 238.938 96 C 238.354 96, 233.066 98.843, 227.188 102.319 C 221.310 105.794, 215.825 108.949, 215 109.330 C 214.175 109.710, 212.150 110.912, 210.500 112 C 208.850 113.088, 206.375 114.521, 205 115.183 C 203.625 115.845, 201.825 116.916, 201 117.564 C 200.175 118.211, 197.475 119.860, 195 121.229 C 185.155 126.673, 182.438 128.251, 181 129.360 C 180.175 129.997, 177.700 131.397, 175.500 132.472 C 173.300 133.547, 169.619 135.681, 167.320 137.214 C 165.021 138.746, 162.899 140, 162.605 140 C 162.311 140, 157.892 142.406, 152.785 145.346 C 147.678 148.286, 140.800 152.173, 137.500 153.984 C 134.200 155.795, 129.475 158.386, 127 159.743 C 124.525 161.099, 122.050 162.569, 121.500 163.008 C 120.950 163.448, 116.270 165.924, 111.100 168.512 L 101.699 173.217 95.901 173.743 L 90.103 174.268 85.593 172.149 C 83.112 170.983, 79.152 169.583, 76.791 169.039 L 72.500 168.049 65.718 168.024 L 58.937 168 53.218 169.938 C 45.309 172.620, 42.144 174.329, 37.106 178.641 L 32.760 182.361 28.380 188.381 L 24 194.400 24 196 C 24 196.880, 23.632 198.027, 23.183 198.550 C 22.733 199.072, 21.799 201.833, 21.107 204.684 L 19.849 209.868 20.092 215.684 C 20.352 221.926, 20.367 221.981, 24.589 232.446 L 27.391 239.391 29.083 241.083 C 30.013 242.013, 31.163 243.400, 31.637 244.165 C 32.112 244.929, 35.293 247.956, 38.707 250.890 L 44.914 256.225 46.403 260.863 C 47.222 263.413, 48.150 268.200, 48.465 271.500 C 48.780 274.800, 49.302 314.400, 49.625 359.500 L 50.212 441.500 51.473 443 L 52.734 444.500 52.488 446.500 C 52.226 448.626, 50.144 456.292, 47.611 464.453 C 46.765 467.178, 46.238 469.572, 46.440 469.773 C 46.641 469.975, 48.537 469.258, 50.653 468.180 C 52.769 467.102, 56.944 465.496, 59.932 464.610 L 65.363 463 73.682 463 L 82 463 82 362.065 L 82 261.130 82.922 258.705 L 83.844 256.279 87.672 254.590 C 94.255 251.684, 95.653 250.590, 101.061 244.118 L 106.323 237.821 110.411 238.413 C 112.660 238.739, 117.200 239.278, 120.500 239.611 L 126.500 240.217 127.450 241.109 L 128.400 242 132.450 242.020 C 134.678 242.030, 140.100 242.735, 144.500 243.586 C 148.900 244.436, 154.750 245.521, 157.500 245.997 C 160.250 246.473, 164.750 247.373, 167.500 247.997 C 170.250 248.621, 174.525 249.493, 177 249.935 C 189.658 252.196, 219.774 261.862, 232 267.589 C 235.025 269.006, 238.400 270.535, 239.500 270.988 C 243.333 272.565, 255.570 278.211, 265.500 282.984 C 271 285.628, 276.625 288.285, 278 288.888 C 279.375 289.492, 281.175 290.428, 282 290.968 C 282.825 291.508, 285.750 292.949, 288.500 294.169 C 291.250 295.390, 293.725 296.671, 294 297.017 C 294.275 297.362, 301.025 300.907, 309 304.894 C 316.975 308.881, 326.200 313.685, 329.500 315.569 C 332.800 317.454, 336.175 319.295, 337 319.660 C 337.825 320.026, 339.625 321.100, 341 322.046 C 342.375 322.992, 346.200 325.214, 349.500 326.983 C 352.800 328.752, 357.300 331.167, 359.500 332.350 C 361.700 333.532, 363.725 334.725, 364 335 C 365.055 336.055, 368.615 338.074, 371.250 339.112 L 374 340.196 374 341.098 L 374 342 375.535 342 C 376.380 342, 378.094 342.671, 379.346 343.491 C 382.468 345.537, 390.815 347.976, 394.739 347.989 L 397.979 348 403.004 346.090 L 408.030 344.181 411.664 340.990 C 413.662 339.236, 416.415 336.472, 417.781 334.848 L 420.265 331.896 418.175 329.948 C 417.025 328.877, 415.808 328, 415.472 328 C 414.536 328, 405.545 321.726, 405.167 320.808 L 404.833 320 402.885 320 L 400.937 320 400.362 318.500 L 399.786 317 398.515 317 C 397.817 317, 396.646 316.278, 395.914 315.396 C 395.181 314.514, 393.664 313.383, 392.541 312.883 C 389.513 311.534, 382.343 307.289, 375 302.496 C 367.009 297.281, 356.487 290.993, 352.488 289.043 C 350.845 288.242, 348.748 286.967, 347.829 286.210 C 345.532 284.317, 341.133 281.867, 330 276.279 C 324.775 273.656, 320.275 271.283, 320 271.005 C 318.470 269.460, 295.053 257.747, 291 256.500 C 289.625 256.077, 288.275 255.451, 288 255.110 C 287.021 253.895, 265.643 244, 263.997 244 C 263.434 244, 262.191 243.603, 261.236 243.117 C 260.281 242.631, 258.375 241.771, 257 241.207 C 251.834 239.086, 244.439 235.824, 242.764 234.928 C 241.809 234.418, 240.211 234, 239.214 234 C 238.216 234, 236.972 233.642, 236.450 233.204 C 235.927 232.766, 233.700 231.837, 231.500 231.138 C 229.300 230.439, 226.600 229.501, 225.500 229.053 C 224.400 228.605, 220.125 227.204, 216 225.939 C 211.875 224.674, 208.073 223.271, 207.550 222.820 C 207.028 222.369, 205.655 222, 204.500 222 C 203.345 222, 201.972 221.632, 201.450 221.183 C 200.927 220.733, 198.025 219.814, 195 219.141 C 189.242 217.859, 188.611 217.701, 172.500 213.503 C 167 212.070, 160.925 210.672, 159 210.395 C 157.075 210.119, 154.375 209.503, 153 209.027 C 151.625 208.550, 148.475 207.862, 146 207.498 C 143.525 207.134, 139.025 206.405, 136 205.879 C 132.975 205.352, 128.700 204.686, 126.500 204.397 C 124.300 204.109, 121.878 203.668, 121.117 203.417 L 119.734 202.961 122.342 200.730 C 123.775 199.504, 128.335 196.716, 132.474 194.535 C 136.613 192.354, 140 190.217, 140 189.785 C 140 189.353, 140.465 189, 141.034 189 C 141.603 189, 147.163 186.075, 153.389 182.500 C 159.615 178.925, 165.030 176, 165.421 176 C 165.813 176, 167.566 174.945, 169.317 173.656 C 171.068 172.367, 175.650 169.604, 179.500 167.517 C 183.350 165.429, 187.287 163.039, 188.250 162.206 C 189.213 161.372, 190 161.006, 190 161.393 C 190 161.780, 191.913 160.802, 194.250 159.221 C 196.588 157.639, 200.975 154.961, 204 153.269 C 207.025 151.577, 211.300 149.174, 213.500 147.928 C 215.700 146.682, 219.075 144.832, 221 143.817 C 222.925 142.802, 225.175 141.545, 226 141.025 C 231.109 137.801, 246.731 128.650, 258.691 121.875 C 260.786 120.688, 263.850 118.885, 265.500 117.869 C 267.150 116.852, 270.461 115.004, 272.859 113.760 L 277.217 111.500 282.617 106.500 L 288.016 101.500 288.008 100.144 C 288.004 99.398, 286.712 97.148, 285.137 95.144 C 280.687 89.481, 276.052 79.147, 276.015 74.809 C 276.007 73.879, 275.663 72.911, 275.250 72.657 L 274.500 72.196 270.500 75.606" stroke="none" fill="#019344" fill-rule="evenodd"/><path d="M 310.556 21.672 C 309.486 21.974, 305.661 23.771, 302.056 25.665 L 295.500 29.109 288.827 36.025 L 282.154 42.940 281.458 45.220 C 281.075 46.474, 279.960 49.300, 278.979 51.500 L 277.197 55.500 276.404 62.500 C 275.968 66.350, 275.760 69.950, 275.940 70.500 C 276.121 71.050, 276.689 73.694, 277.203 76.375 L 278.136 81.251 280.508 86.375 C 281.813 89.194, 284.497 93.598, 286.472 96.163 L 290.063 100.827 284.282 105.908 L 278.500 110.990 254.500 124.820 C 241.300 132.427, 208.450 151.409, 181.500 167.004 C 154.550 182.598, 129.662 196.949, 126.194 198.896 L 119.888 202.434 121.694 203.072 L 123.500 203.709 126.594 201.355 C 128.296 200.060, 130.030 199, 130.446 199 C 131.588 199, 157.449 183.687, 157.833 182.784 C 158.017 182.353, 158.619 182, 159.173 182 C 159.726 182, 167.098 177.950, 175.554 173 C 184.011 168.050, 191.358 164, 191.882 164 C 192.405 164, 192.983 163.620, 193.167 163.155 C 193.527 162.242, 197.839 159.767, 202.250 157.942 L 205 156.804 205 155.902 C 205 155.406, 205.499 155, 206.110 155 C 206.720 155, 215.158 150.342, 224.860 144.648 C 234.562 138.954, 245.650 132.604, 249.500 130.537 C 253.350 128.470, 258.370 125.523, 260.656 123.987 C 262.942 122.451, 265.755 120.895, 266.906 120.530 L 269 119.865 269 118.933 L 269 118 270.258 118 C 272.067 118, 282.972 110.706, 287.384 106.544 L 291.138 103.004 293.069 104.037 C 294.131 104.605, 295 105.425, 295 105.858 C 295 106.291, 297.025 107.657, 299.500 108.893 L 304 111.140 304 168.488 L 304 225.836 304.607 227.418 L 305.214 229 307.548 229 L 309.882 229 310.510 227.984 C 310.855 227.425, 312.424 220.562, 313.996 212.734 C 317.231 196.624, 320.460 183.923, 322.444 179.500 C 323.184 177.850, 324.102 174.925, 324.484 173 C 325.265 169.061, 329.624 155.071, 331.493 150.500 C 332.168 148.850, 333.303 145.250, 334.015 142.500 C 334.728 139.750, 335.635 137.050, 336.033 136.500 C 336.430 135.950, 337.071 134.375, 337.457 133 C 337.842 131.625, 339.758 126.376, 341.714 121.335 L 345.270 112.170 347.385 110.132 C 352.225 105.469, 353.909 104.164, 355.901 103.531 L 358 102.865 358 101.933 L 358 101 362.441 101 L 366.882 101 367.420 101.871 C 367.716 102.350, 369.256 103.001, 370.843 103.319 L 373.727 103.895 399.613 119.106 C 413.851 127.472, 426.288 134.523, 427.250 134.775 C 428.212 135.027, 429 135.600, 429 136.049 C 429 136.498, 430.012 137.181, 431.250 137.567 C 432.488 137.954, 433.725 138.558, 434 138.911 C 434.883 140.042, 453.419 150.720, 455.750 151.440 L 458 152.135 458 153.067 C 458 153.580, 458.470 154, 459.044 154 C 459.619 154, 468.149 158.725, 478 164.500 C 487.851 170.275, 496.138 175, 496.416 175 C 496.693 175, 504.476 179.448, 513.710 184.884 C 528.544 193.618, 538.044 198.565, 538.436 197.763 C 538.506 197.618, 539.646 195.250, 540.967 192.500 L 543.371 187.500 548.972 181.883 L 554.573 176.267 558.537 174.218 L 562.500 172.169 559.959 171.189 C 558.561 170.649, 556.819 169.486, 556.086 168.604 C 555.354 167.722, 554.331 167, 553.812 167 C 553.293 167, 548.982 164.704, 544.231 161.898 C 539.480 159.092, 534.672 156.385, 533.546 155.883 C 532.421 155.381, 530.150 154.082, 528.500 152.996 C 526.850 151.910, 524.825 150.720, 524 150.351 C 523.175 149.982, 517.242 146.602, 510.815 142.840 C 504.388 139.078, 498.854 136, 498.517 136 C 497.982 136, 491.327 132.052, 485.442 128.244 C 484.374 127.553, 482.825 126.678, 482 126.300 C 480.761 125.733, 437.929 100.990, 433 97.994 C 421.407 90.948, 410.952 85, 410.161 85 C 409.614 85, 409.017 84.632, 408.833 84.183 C 408.650 83.733, 402.425 79.811, 395 75.467 C 387.575 71.122, 381.350 67.215, 381.167 66.784 C 380.983 66.353, 380.283 66, 379.611 66 C 378.939 66, 376.865 64.876, 375.003 63.502 L 371.617 61.004 368.501 52.752 L 365.385 44.500 361.541 39.170 L 357.697 33.839 350.692 28.920 L 343.686 24 341.927 24 L 340.167 24 339.761 22.784 L 339.356 21.568 325.928 21.345 C 318.543 21.222, 311.625 21.369, 310.556 21.672 M 613.577 180.619 C 615.819 182.753, 619.051 186.562, 620.760 189.083 L 623.866 193.666 625.844 199.583 C 626.932 202.837, 628.121 207.975, 628.487 211 L 629.153 216.500 627.452 224 L 625.751 231.500 623.429 236.110 L 621.108 240.721 616.160 246.135 C 613.438 249.112, 610.063 252.164, 608.658 252.915 L 606.104 254.282 604.303 258.391 L 602.503 262.500 602.197 300.035 L 601.892 337.571 602.896 400.535 L 603.901 463.500 605.054 467.041 L 606.207 470.582 609.354 472.306 L 612.500 474.029 610.230 472.088 L 607.959 470.146 606.394 466.401 L 604.830 462.656 604.265 368.078 L 603.701 273.500 604.441 266.647 L 605.181 259.794 609.245 256.147 C 611.480 254.141, 615.065 250.710, 617.211 248.521 L 621.115 244.543 623.938 239.521 L 626.761 234.500 629.012 227.093 L 631.264 219.686 630.683 212.757 L 630.102 205.828 629.166 204.664 C 628.652 204.024, 627.899 201.925, 627.494 200 C 626.073 193.248, 617.031 180.690, 611.500 177.787 L 609.500 176.737 613.577 180.619 M 102.474 243.324 L 98.448 248.500 92.375 252.500 C 89.036 254.700, 85.447 256.999, 84.402 257.609 L 82.500 258.718 82.306 361.859 L 82.112 465 83.056 465 L 84 465 84.014 460.750 C 84.022 458.413, 84.016 412.699, 84 359.165 L 83.971 261.829 87.091 258.915 L 90.212 256 91.654 256 L 93.097 256 100.760 248.337 L 108.423 240.673 120.462 241.953 C 127.083 242.656, 132.950 243.517, 133.500 243.866 C 134.050 244.215, 138.100 245.048, 142.500 245.717 C 162.138 248.705, 170.606 250.145, 172 250.733 C 172.825 251.081, 175.975 251.926, 179 252.610 C 193.980 255.999, 209.423 260.326, 209.833 261.250 C 210.017 261.663, 210.917 262.015, 211.833 262.034 C 212.750 262.053, 215.300 262.937, 217.500 264 C 219.700 265.063, 222.106 265.947, 222.846 265.966 C 223.586 265.985, 225.386 266.656, 226.846 267.459 C 231.330 269.923, 238.813 273, 240.323 273 L 241.755 273 243 274.500 C 243.685 275.325, 244.866 276, 245.626 276 C 246.386 276, 248.686 276.900, 250.739 278 C 252.791 279.100, 255.040 280, 255.735 280 L 257 280 257 281 L 257 282 258.215 282 C 259.989 282, 276.136 289.788, 298.341 301.353 C 304.304 304.459, 309.681 307, 310.291 307 L 311.400 307 310.450 306.093 C 308.614 304.342, 262.297 281.625, 243.941 273.474 C 204.361 255.897, 186.251 250.885, 128.409 241.497 C 116.560 239.573, 106.783 238.033, 106.683 238.074 C 106.582 238.115, 104.688 240.478, 102.474 243.324 M 37.250 251.347 L 45 258.928 45 260.130 L 45 261.333 45.574 260.760 L 46.147 260.186 44.548 257.093 C 43.668 255.392, 42.600 254, 42.174 254 C 41.748 254, 38.722 251.698, 35.450 248.883 L 29.500 243.767 37.250 251.347 M 309.083 264.373 C 310.112 265.294, 316 267.999, 316 267.551 C 316 266.975, 310.456 264, 309.383 264 C 308.989 264, 308.854 264.168, 309.083 264.373 M 557.502 275.096 C 498.373 345.530, 426.389 401.742, 327.025 455.074 L 310.081 464.168 309.040 463.525 L 308 462.882 308 463.874 L 308 464.865 310.049 465.516 L 312.098 466.166 314.504 464.589 C 315.827 463.722, 322.088 460.327, 328.416 457.043 C 334.745 453.760, 341.762 449.913, 344.010 448.494 C 346.258 447.075, 349.088 445.458, 350.299 444.902 C 352.904 443.706, 356.258 441.839, 365.023 436.709 C 373.778 431.585, 375.415 430.585, 376 430 C 376.275 429.725, 377.716 428.825, 379.201 428 C 385.057 424.748, 392.156 420.225, 407.323 410.082 C 416.026 404.262, 424.239 398.913, 425.573 398.195 C 426.908 397.478, 428 396.465, 428 395.945 C 428 395.425, 428.430 395, 428.956 395 C 430.019 395, 436.053 391.059, 438.305 388.894 C 439.102 388.127, 440.766 386.825, 442.002 386 C 449.062 381.287, 466.163 367.850, 478.927 356.985 C 483.136 353.402, 487.380 349.802, 488.357 348.985 C 506.760 333.594, 538.950 301.233, 553.496 283.500 C 556.203 280.200, 559.448 276.426, 560.709 275.114 C 561.969 273.801, 563 272.276, 563 271.724 C 563 271.172, 563.737 270.182, 564.638 269.523 L 566.275 268.326 565.836 267.009 L 565.397 265.692 557.502 275.096 M 48.300 281 L 48.300 286.500 48.716 283.750 C 48.945 282.238, 48.945 279.762, 48.716 278.250 L 48.300 275.500 48.300 281 M 270.693 301.892 C 272.889 303.483, 275.657 306.020, 276.845 307.530 L 279.004 310.275 280.649 315.388 L 282.294 320.500 283.043 362.500 L 283.793 404.500 284.940 423 C 289.233 492.260, 294.588 519.929, 317.598 591.750 L 324.085 612 324.905 612 L 325.726 612 324.271 607.250 C 323.471 604.638, 322.427 601.600, 321.950 600.500 C 321.473 599.400, 320.574 596.475, 319.952 594 C 319.329 591.525, 318.210 588.150, 317.464 586.500 C 316.718 584.850, 315.433 581.025, 314.608 578 C 313.784 574.975, 312.393 570.250, 311.517 567.500 C 306.777 552.618, 304.121 543.012, 301.012 529.500 C 299.999 525.100, 298.654 519.787, 298.023 517.692 C 297.391 515.598, 296.248 509.523, 295.484 504.192 C 294.719 498.862, 293.636 492.250, 293.078 489.500 C 292.519 486.750, 291.375 477.300, 290.534 468.500 C 289.694 459.700, 288.564 448.590, 288.024 443.812 C 286.856 433.494, 284.989 386.997, 284.114 346.500 L 283.489 317.500 281.406 312.989 L 279.324 308.478 276.412 305.428 C 273.550 302.431, 268.733 299, 267.385 299 C 267.008 299, 268.497 300.302, 270.693 301.892 M 375 301.376 C 375 301.610, 376.602 302.748, 378.560 303.903 L 382.120 306.003 381.497 304.995 C 380.827 303.911, 375 300.665, 375 301.376 M 312 307.719 L 312 308.615 318.250 311.826 C 326.759 316.197, 335.276 320.805, 336.561 321.733 C 337.796 322.625, 344.764 326.493, 350.456 329.447 C 352.632 330.576, 355.026 332.063, 355.777 332.750 C 356.528 333.438, 357.786 334, 358.571 334 C 359.357 334, 360.004 334.337, 360.008 334.750 C 360.012 335.163, 361.025 335.992, 362.258 336.593 C 366.449 338.636, 371.497 341.498, 371.999 342.116 C 372.931 343.261, 383.681 348, 385.346 348 L 387 348 387 349 L 387 350 395.500 350 L 404 350 404 349.125 L 404 348.250 406.921 347.666 L 409.842 347.082 415.921 341.078 L 422 335.074 422 333.105 L 422 331.136 419.250 329.232 C 417.738 328.185, 415.825 327.008, 415 326.618 L 413.500 325.907 415.500 327.410 C 416.600 328.237, 418.400 329.580, 419.500 330.396 L 421.500 331.878 416 337.520 L 410.500 343.162 405.584 345.682 L 400.668 348.202 393.581 347.844 L 386.493 347.486 377.997 343.294 C 373.323 340.989, 361.625 334.528, 352 328.937 C 342.375 323.346, 329.438 316.083, 323.250 312.797 L 312 306.823 312 307.719 M 399.437 316.898 C 399.743 317.393, 401.597 318.745, 403.557 319.901 C 405.517 321.057, 406.870 321.598, 406.563 321.102 C 406.257 320.607, 404.403 319.255, 402.443 318.099 C 400.483 316.943, 399.130 316.402, 399.437 316.898 M 457 397.210 C 457 397.569, 459.924 400.931, 463.497 404.681 L 469.994 411.500 469.997 410.471 C 469.999 409.905, 467.075 406.543, 463.500 403 C 459.925 399.457, 457 396.851, 457 397.210 M 499.054 412.803 C 501.499 414.344, 504.132 415.989, 504.905 416.457 L 506.309 417.309 505.654 416.249 C 504.927 415.072, 496.585 410, 495.376 410 C 494.954 410, 496.609 411.261, 499.054 412.803 M 475.958 417.250 C 478.410 419.863, 480.548 422, 480.708 422 C 481.459 422, 480.665 421.102, 476.250 416.958 L 471.500 412.500 475.958 417.250 M 507.349 417.755 C 507.703 418.329, 509.653 419.778, 511.682 420.975 L 515.370 423.151 514.262 421.825 C 513.652 421.096, 511.703 419.648, 509.929 418.606 L 506.704 416.712 507.349 417.755 M 486.048 428.750 C 488.984 431.913, 492.087 435.217, 492.943 436.094 C 493.799 436.970, 497.650 441.206, 501.500 445.507 C 512.600 457.908, 520.982 466.572, 520.992 465.656 C 520.996 465.191, 518.608 462.266, 515.684 459.156 C 512.759 456.045, 507.022 449.888, 502.934 445.473 C 486.091 427.287, 481.975 423, 481.358 423 C 481.002 423, 483.112 425.587, 486.048 428.750 M 523.359 428.772 C 524.150 430.052, 530 434.381, 530 433.687 C 530 433.440, 528.348 431.977, 526.329 430.437 C 524.310 428.897, 522.973 428.148, 523.359 428.772 M 531 434.322 C 531 434.590, 537.349 439.836, 545.109 445.981 C 552.868 452.125, 559.056 456.717, 558.859 456.185 C 558.661 455.653, 556.250 453.464, 553.500 451.321 C 535.352 437.177, 531 433.889, 531 434.322 M 563.750 460.819 L 568 465.074 568 466.537 L 568 468 569.441 468 C 570.234 468, 571.152 467.563, 571.482 467.029 L 572.082 466.059 570.548 463.093 C 569.704 461.462, 568.546 459.837, 567.973 459.483 L 566.932 458.840 568.962 462.170 C 570.079 464.001, 570.977 465.950, 570.959 466.500 L 570.925 467.500 567.712 463.968 C 565.946 462.025, 563.375 459.564, 562 458.499 L 559.500 456.563 563.750 460.819 M 237.459 462.586 C 237.898 463.639, 238.465 465.453, 238.720 466.619 L 239.183 468.737 209.341 484.537 C 192.929 493.227, 167.900 506.501, 153.723 514.035 L 127.945 527.734 130.367 529.321 L 132.789 530.908 132.311 529.083 L 131.834 527.258 134.657 526.550 C 136.210 526.160, 137.709 525.528, 137.990 525.145 C 138.270 524.763, 142.100 522.622, 146.500 520.388 C 150.900 518.154, 157.650 514.606, 161.500 512.503 C 165.350 510.400, 173 506.344, 178.500 503.489 C 187.901 498.609, 197.641 493.383, 201.705 491.037 C 202.692 490.467, 204.625 489.543, 206 488.984 C 207.375 488.424, 210.525 486.803, 213 485.380 C 216.857 483.163, 221.565 480.591, 235 473.358 C 236.375 472.618, 238.054 472.010, 238.731 472.006 L 239.962 472 240.536 469.711 L 241.111 467.422 240.117 464.808 C 239.571 463.371, 238.569 461.852, 237.892 461.433 L 236.660 460.672 237.459 462.586 M 524.063 469.516 C 525.472 471.157, 528.377 474.863, 530.518 477.750 C 532.659 480.637, 534.570 483, 534.765 483 C 535.865 483, 526.822 470.962, 523.883 468.516 L 521.500 466.531 524.063 469.516 M 105.675 478.250 C 107.925 480.587, 110.285 483.512, 110.918 484.750 L 112.070 487 113.119 487 L 114.168 487 110.902 482.750 C 107.588 478.437, 103.143 474, 102.136 474 C 101.832 474, 103.425 475.913, 105.675 478.250 M 617.882 479.090 L 623.264 484.500 626.693 491.643 L 630.121 498.786 631.067 505.470 L 632.014 512.154 630.994 518.827 L 629.973 525.500 626.371 532.708 L 622.768 539.917 617.080 545.342 L 611.392 550.768 606.446 553.225 C 603.726 554.577, 599.382 556.258, 596.793 556.960 L 592.085 558.236 582.293 557.817 L 572.500 557.398 566.331 554.599 L 560.162 551.800 554.857 552.937 L 549.551 554.075 541.526 558.391 C 521.747 569.027, 459.750 604.598, 411 633.281 L 380.500 651.227 376.250 655.321 L 372 659.416 372 662.850 L 372 666.284 369.958 673.140 L 367.917 679.995 363.208 686.214 L 358.500 692.433 353.500 696.224 L 348.500 700.014 343 702.095 C 339.975 703.240, 334.916 704.596, 331.758 705.109 L 326.017 706.041 319.462 704.994 C 309.123 703.342, 303.758 700.913, 294.500 693.690 L 289.500 689.789 294.556 694.652 L 299.611 699.514 305.043 702.332 L 310.475 705.150 315.266 705.718 L 320.058 706.286 320.588 707.143 L 321.118 708 326.500 708 L 331.882 708 332.412 707.143 L 332.942 706.286 337.739 705.717 L 342.536 705.149 348.690 701.999 L 354.845 698.849 359.860 694.041 L 364.875 689.233 366.885 685.367 C 367.991 683.240, 369.333 680.600, 369.867 679.500 C 371.596 675.943, 374 667.197, 374 664.466 L 374 661.809 375.716 658.904 C 376.659 657.307, 377.784 656, 378.216 656 C 378.647 656, 379.827 655.212, 380.838 654.250 C 381.849 653.288, 383.536 651.966, 384.588 651.314 C 388.794 648.705, 401.592 641.299, 403 640.659 C 403.825 640.284, 405.679 639.195, 407.120 638.239 C 408.561 637.283, 412.834 634.700, 416.614 632.500 C 420.395 630.300, 424.391 627.957, 425.494 627.293 C 426.597 626.629, 428.624 625.585, 429.998 624.973 C 431.372 624.361, 433.172 623.253, 433.998 622.509 C 434.824 621.766, 437.750 619.977, 440.500 618.534 C 443.250 617.090, 446.850 615.044, 448.500 613.987 C 450.150 612.929, 452.850 611.402, 454.500 610.593 C 456.150 609.784, 460.425 607.294, 464 605.060 C 467.575 602.826, 471.288 600.721, 472.250 600.382 C 473.212 600.044, 474 599.369, 474 598.883 C 474 598.398, 474.485 598, 475.077 598 C 475.669 598, 481.407 594.937, 487.827 591.193 C 494.247 587.450, 500.175 584.066, 501 583.673 C 501.825 583.281, 504.300 581.890, 506.500 580.583 C 508.700 579.275, 512.428 577.212, 514.784 575.997 C 517.141 574.782, 519.616 573.273, 520.284 572.644 C 520.953 572.015, 523.075 570.722, 525 569.772 C 526.925 568.821, 531.200 566.541, 534.500 564.705 C 547.145 557.671, 550.539 556, 552.183 556 L 553.882 556 554.500 555 L 555.118 554 558.573 554 L 562.027 554 563.764 554.992 C 564.719 555.538, 567.879 556.888, 570.787 557.992 L 576.074 560 584.907 560 L 593.739 560 599.620 558.121 L 605.500 556.242 611.182 552.819 L 616.863 549.396 621.328 543.948 C 623.783 540.952, 626.974 536.371, 628.418 533.768 L 631.044 529.037 632.178 521.018 L 633.312 513 632.178 504.987 L 631.045 496.974 627.825 490.974 C 623.924 483.709, 619.999 478.819, 615.710 475.880 L 612.500 473.681 617.882 479.090 M 34.770 539.500 C 35.942 541.767, 43.390 548.893, 46.464 550.689 C 52.649 554.303, 57.034 556.166, 62.696 557.586 L 69.013 559.170 75.256 558.719 C 82.337 558.206, 89.774 556.433, 91.764 554.781 L 93.107 553.667 97.641 553.667 L 102.176 553.667 102.838 554.634 C 103.202 555.166, 105.750 556.767, 108.500 558.192 C 117.803 563.010, 120.497 564.498, 120.999 565.096 C 121.654 565.874, 126.765 568.616, 130.250 570.058 L 133 571.196 133 572.098 C 133 572.594, 133.496 573, 134.102 573 C 134.708 573, 140.933 576.375, 147.936 580.500 C 154.939 584.625, 161.193 588, 161.834 588 L 163 588 163 588.902 L 163 589.804 165.750 590.905 C 167.262 591.511, 169.850 592.900, 171.500 593.992 C 173.150 595.084, 175.175 596.283, 176 596.656 C 176.825 597.029, 184.322 601.309, 192.661 606.167 C 200.999 611.025, 208.274 615, 208.827 615 C 209.381 615, 209.983 615.374, 210.167 615.831 C 210.604 616.921, 253.477 642, 254.903 642 C 255.506 642, 256 642.420, 256 642.933 L 256 643.865 258.250 644.567 C 259.488 644.954, 260.725 645.561, 261 645.918 C 261.275 646.274, 264.743 648.472, 268.706 650.802 L 275.913 655.038 277.456 657.241 L 279 659.445 279 658.410 C 279 656.505, 273.584 652.180, 264 646.431 C 228.008 624.841, 118.303 561.694, 104.621 554.691 L 96.742 550.659 93.621 551.936 C 91.905 552.638, 88.704 553.875, 86.508 554.685 L 82.516 556.157 76.008 556.689 L 69.500 557.221 63.691 556.134 L 57.883 555.046 51.592 552.044 L 45.300 549.041 39.518 543.271 L 33.736 537.500 34.770 539.500 M 349.554 619.108 C 352.274 620.818, 355.288 622.912, 356.250 623.763 L 358 625.310 357.991 624.405 C 357.982 623.432, 346.913 616, 345.474 616 C 344.998 616, 346.834 617.399, 349.554 619.108 M 288.084 622.808 C 289.952 625.033, 291.604 626.729, 291.755 626.578 C 291.907 626.426, 291.366 624.772, 290.554 622.901 C 289.743 621.031, 289.061 619.853, 289.039 620.285 L 289 621.070 286.844 619.916 L 284.688 618.762 288.084 622.808" stroke="none" fill="#fcb040" fill-rule="evenodd"/><path d="M 579.250 168.716 C 580.763 168.945, 583.237 168.945, 584.750 168.716 L 587.500 168.300 582 168.300 L 576.500 168.300 579.250 168.716 M 553.265 177.885 C 548.626 181.552, 542 188.962, 542 190.484 C 542 190.866, 543.773 188.936, 545.940 186.195 L 549.880 181.210 554.440 177.936 C 558.679 174.891, 559.619 174, 558.590 174 C 558.364 174, 555.968 175.748, 553.265 177.885 M 628.272 215 L 628.272 219.500 628.706 217.250 C 628.944 216.012, 628.944 213.988, 628.706 212.750 L 628.272 210.500 628.272 215 M 537.453 297.250 L 533.500 301.500 537.750 297.547 C 541.702 293.871, 542.460 293, 541.703 293 C 541.540 293, 539.627 294.913, 537.453 297.250 M 250.272 302 L 250.272 306.500 250.706 304.250 C 250.944 303.012, 250.944 300.988, 250.706 299.750 L 250.272 297.500 250.272 302 M 519 316.500 C 514.903 320.625, 511.775 324, 512.050 324 C 512.325 324, 515.903 320.625, 520 316.500 C 524.097 312.375, 527.225 309, 526.950 309 C 526.675 309, 523.097 312.375, 519 316.500 M 249.272 321 L 249.272 325.500 249.706 323.250 C 249.944 322.012, 249.944 319.988, 249.706 318.750 L 249.272 316.500 249.272 321 M 282.439 352 L 282.439 379.500 282.748 365.750 C 282.917 358.188, 282.917 345.813, 282.748 338.250 L 282.439 324.500 282.439 352 M 497.946 336.750 L 494.500 340.500 498.250 337.054 C 500.313 335.158, 502 333.471, 502 333.304 C 502 332.540, 501.154 333.260, 497.946 336.750 M 248.370 361 L 248.370 371.500 248.737 366.250 C 248.939 363.363, 248.939 358.637, 248.737 355.750 L 248.370 350.500 248.370 361 M 602.434 398.500 L 602.432 423.500 602.747 411.308 C 602.919 404.603, 602.920 393.353, 602.748 386.308 L 602.435 373.500 602.434 398.500 M 248.370 387 L 248.370 397.500 248.737 392.250 C 248.939 389.363, 248.939 384.637, 248.737 381.750 L 248.370 376.500 248.370 387 M 283.272 396 L 283.272 400.500 283.706 398.250 C 283.944 397.012, 283.944 394.988, 283.706 393.750 L 283.272 391.500 283.272 396 M 284.272 417 L 284.272 421.500 284.706 419.250 C 284.944 418.012, 284.944 415.988, 284.706 414.750 L 284.272 412.500 284.272 417 M 249.272 420 L 249.272 424.500 249.706 422.250 C 249.944 421.012, 249.944 418.988, 249.706 417.750 L 249.272 415.500 249.272 420 M 285.286 436.500 L 285.300 441.500 285.718 438.736 C 285.947 437.216, 285.941 434.966, 285.704 433.736 L 285.272 431.500 285.286 436.500 M 603.328 454.500 L 603.336 461.500 603.730 457.728 C 603.946 455.653, 603.943 452.503, 603.722 450.728 L 603.320 447.500 603.328 454.500 M 287.252 459.500 L 287.272 463.500 287.707 461.238 C 287.946 459.994, 287.937 458.194, 287.687 457.238 L 287.232 455.500 287.252 459.500 M 569.436 461.501 C 572.917 466.630, 573.629 467.238, 571.693 463.427 C 570.834 461.737, 569.373 459.724, 568.445 458.954 L 566.758 457.554 569.436 461.501 M 357.453 692.250 L 353.500 696.500 357.750 692.547 C 361.702 688.871, 362.460 688, 361.703 688 C 361.540 688, 359.627 689.913, 357.453 692.250" stroke="none" fill="#ef4c35" fill-rule="evenodd"/><path d="M 275.608 73.500 C 275.965 75.700, 276.629 78.175, 277.085 79 L 277.913 80.500 277.321 76.500 C 276.995 74.300, 276.330 71.825, 275.844 71 L 274.959 69.500 275.608 73.500 M 288 100.351 L 288 101.820 282.750 106.523 L 277.500 111.227 281.500 108.213 C 283.700 106.555, 286.546 104.077, 287.825 102.705 L 290.150 100.211 289.075 99.546 L 288 98.882 288 100.351 M 100.934 244.250 C 98.526 247.137, 97.347 248.868, 98.315 248.096 C 100.261 246.545, 106.419 239, 105.741 239 C 105.505 239, 103.343 241.363, 100.934 244.250 M 373.915 301.706 C 375.243 302.693, 378.168 304.532, 380.415 305.794 L 384.500 308.088 382.085 306.294 C 380.757 305.307, 377.832 303.468, 375.585 302.206 L 371.500 299.912 373.915 301.706 M 49.232 372.691 L 49 441.882 49.750 442.346 L 50.500 442.810 50.248 398.155 C 50.109 373.595, 49.876 342.250, 49.730 328.500 L 49.464 303.500 49.232 372.691 M 419.458 330.824 L 420.210 332.148 417.883 334.824 L 415.556 337.500 418.492 334.764 L 421.427 332.027 420.067 330.764 L 418.707 329.500 419.458 330.824 M 82.395 365.500 L 82.397 379.500 82.743 372.206 C 82.934 368.195, 82.932 361.895, 82.741 358.206 L 82.392 351.500 82.395 365.500 M 58 465.391 C 54.425 466.678, 50.050 468.336, 48.277 469.075 L 45.053 470.418 44.558 471.709 L 44.063 473 44.972 473 C 45.473 473, 46.152 472.563, 46.482 472.028 C 47.335 470.648, 55.018 467.379, 62.035 465.410 L 68.015 463.732 75.007 464.233 L 82 464.733 82 463.866 L 82 463 73.250 463.026 L 64.500 463.052 58 465.391" stroke="none" fill="#257177" fill-rule="evenodd"/></svg>